<svg width="60" height="60" viewBox="0 0 60 60" fill="none" xmlns="http://www.w3.org/2000/svg">
<path d="M51.7388 25.8988C54.4344 27.7152 54.7257 31.4066 52.9089 33.6332C51.3842 35.981 48.4274 35.7719 45.9952 34.307L41.3431 31.4066L41.3431 53.4951C41.3431 56.2258 39.1295 58.4395 36.3988 58.4395C33.6681 58.4395 31.6118 56.2258 31.6118 53.4951L31.6118 41.1311C31.3004 42.9203 28.4824 44.1703 26.5728 43.6527C24.4325 43.0726 23.4723 41.9367 22.8374 40.1078C22.0757 41.7191 19.7759 42.5687 18.0034 42.1146C15.6274 41.5059 15.0298 39.6977 14.6782 38.4086C13.7859 39.1723 12.1949 39.9027 10.9282 39.9027C8.10851 39.9027 6.06119 37.7686 6.06119 34.9489C6.06119 29.9961 6.52161 25.3607 7.14893 20.4496C7.55908 17.7836 8.51594 13.7484 11.6313 9.72695C14.9749 5.28314 19.3728 3.6332 24.5889 3.6332C30.6221 3.6332 37.7771 7.59527 40.1079 13.0375C41.1347 15.4351 42.1246 17.7864 43.6235 19.5707C45.8964 22.2763 48.7535 23.8872 51.7388 25.8988Z" fill="url(#paint0_radial_1946_1462)"/>
<path d="M51.7388 25.8988C54.4344 27.7152 54.7257 31.4066 52.9089 33.6332C51.3842 35.981 48.4274 35.7719 45.9952 34.307L41.3431 31.4066L41.3431 53.4951C41.3431 56.2258 39.1295 58.4395 36.3988 58.4395C33.6681 58.4395 31.6118 56.2258 31.6118 53.4951L31.6118 41.1311C31.3004 42.9203 28.4824 44.1703 26.5728 43.6527C24.4325 43.0726 23.4723 41.9367 22.8374 40.1078C22.0757 41.7191 19.7759 42.5687 18.0034 42.1146C15.6274 41.5059 15.0298 39.6977 14.6782 38.4086C13.7859 39.1723 12.1949 39.9027 10.9282 39.9027C8.10851 39.9027 6.06119 37.7686 6.06119 34.9489C6.06119 29.9961 6.52161 25.3607 7.14893 20.4496C7.55908 17.7836 8.51594 13.7484 11.6313 9.72695C14.9749 5.28314 19.3728 3.6332 24.5889 3.6332C30.6221 3.6332 37.7771 7.59527 40.1079 13.0375C41.1347 15.4351 42.1246 17.7864 43.6235 19.5707C45.8964 22.2763 48.7535 23.8872 51.7388 25.8988Z" fill="url(#paint1_radial_1946_1462)"/>
<path d="M51.7388 25.8988C54.4344 27.7152 54.7257 31.4066 52.9089 33.6332C51.3842 35.981 48.4274 35.7719 45.9952 34.307L41.3431 31.4066L41.3431 53.4951C41.3431 56.2258 39.1295 58.4395 36.3988 58.4395C33.6681 58.4395 31.6118 56.2258 31.6118 53.4951L31.6118 41.1311C31.3004 42.9203 28.4824 44.1703 26.5728 43.6527C24.4325 43.0726 23.4723 41.9367 22.8374 40.1078C22.0757 41.7191 19.7759 42.5687 18.0034 42.1146C15.6274 41.5059 15.0298 39.6977 14.6782 38.4086C13.7859 39.1723 12.1949 39.9027 10.9282 39.9027C8.10851 39.9027 6.06119 37.7686 6.06119 34.9489C6.06119 29.9961 6.52161 25.3607 7.14893 20.4496C7.55908 17.7836 8.51594 13.7484 11.6313 9.72695C14.9749 5.28314 19.3728 3.6332 24.5889 3.6332C30.6221 3.6332 37.7771 7.59527 40.1079 13.0375C41.1347 15.4351 42.1246 17.7864 43.6235 19.5707C45.8964 22.2763 48.7535 23.8872 51.7388 25.8988Z" fill="url(#paint2_radial_1946_1462)"/>
<path d="M51.7388 25.8988C54.4344 27.7152 54.7257 31.4066 52.9089 33.6332C51.3842 35.981 48.4274 35.7719 45.9952 34.307L41.3431 31.4066L41.3431 53.4951C41.3431 56.2258 39.1295 58.4395 36.3988 58.4395C33.6681 58.4395 31.6118 56.2258 31.6118 53.4951L31.6118 41.1311C31.3004 42.9203 28.4824 44.1703 26.5728 43.6527C24.4325 43.0726 23.4723 41.9367 22.8374 40.1078C22.0757 41.7191 19.7759 42.5687 18.0034 42.1146C15.6274 41.5059 15.0298 39.6977 14.6782 38.4086C13.7859 39.1723 12.1949 39.9027 10.9282 39.9027C8.10851 39.9027 6.06119 37.7686 6.06119 34.9489C6.06119 29.9961 6.52161 25.3607 7.14893 20.4496C7.55908 17.7836 8.51594 13.7484 11.6313 9.72695C14.9749 5.28314 19.3728 3.6332 24.5889 3.6332C30.6221 3.6332 37.7771 7.59527 40.1079 13.0375C41.1347 15.4351 42.1246 17.7864 43.6235 19.5707C45.8964 22.2763 48.7535 23.8872 51.7388 25.8988Z" fill="url(#paint3_radial_1946_1462)"/>
<path d="M51.7388 25.8988C54.4344 27.7152 54.7257 31.4066 52.9089 33.6332C51.3842 35.981 48.4274 35.7719 45.9952 34.307L41.3431 31.4066L41.3431 53.4951C41.3431 56.2258 39.1295 58.4395 36.3988 58.4395C33.6681 58.4395 31.6118 56.2258 31.6118 53.4951L31.6118 41.1311C31.3004 42.9203 28.4824 44.1703 26.5728 43.6527C24.4325 43.0726 23.4723 41.9367 22.8374 40.1078C22.0757 41.7191 19.7759 42.5687 18.0034 42.1146C15.6274 41.5059 15.0298 39.6977 14.6782 38.4086C13.7859 39.1723 12.1949 39.9027 10.9282 39.9027C8.10851 39.9027 6.06119 37.7686 6.06119 34.9489C6.06119 29.9961 6.52161 25.3607 7.14893 20.4496C7.55908 17.7836 8.51594 13.7484 11.6313 9.72695C14.9749 5.28314 19.3728 3.6332 24.5889 3.6332C30.6221 3.6332 37.7771 7.59527 40.1079 13.0375C41.1347 15.4351 42.1246 17.7864 43.6235 19.5707C45.8964 22.2763 48.7535 23.8872 51.7388 25.8988Z" fill="url(#paint4_radial_1946_1462)"/>
<path d="M51.7388 25.8988C54.4344 27.7152 54.7257 31.4066 52.9089 33.6332C51.3842 35.981 48.4274 35.7719 45.9952 34.307L41.3431 31.4066L41.3431 53.4951C41.3431 56.2258 39.1295 58.4395 36.3988 58.4395C33.6681 58.4395 31.6118 56.2258 31.6118 53.4951L31.6118 41.1311C31.3004 42.9203 28.4824 44.1703 26.5728 43.6527C24.4325 43.0726 23.4723 41.9367 22.8374 40.1078C22.0757 41.7191 19.7759 42.5687 18.0034 42.1146C15.6274 41.5059 15.0298 39.6977 14.6782 38.4086C13.7859 39.1723 12.1949 39.9027 10.9282 39.9027C8.10851 39.9027 6.06119 37.7686 6.06119 34.9489C6.06119 29.9961 6.52161 25.3607 7.14893 20.4496C7.55908 17.7836 8.51594 13.7484 11.6313 9.72695C14.9749 5.28314 19.3728 3.6332 24.5889 3.6332C30.6221 3.6332 37.7771 7.59527 40.1079 13.0375C41.1347 15.4351 42.1246 17.7864 43.6235 19.5707C45.8964 22.2763 48.7535 23.8872 51.7388 25.8988Z" fill="url(#paint5_radial_1946_1462)"/>
<path d="M51.7388 25.8988C54.4344 27.7152 54.7257 31.4066 52.9089 33.6332C51.3842 35.981 48.4274 35.7719 45.9952 34.307L41.3431 31.4066L41.3431 53.4951C41.3431 56.2258 39.1295 58.4395 36.3988 58.4395C33.6681 58.4395 31.6118 56.2258 31.6118 53.4951L31.6118 41.1311C31.3004 42.9203 28.4824 44.1703 26.5728 43.6527C24.4325 43.0726 23.4723 41.9367 22.8374 40.1078C22.0757 41.7191 19.7759 42.5687 18.0034 42.1146C15.6274 41.5059 15.0298 39.6977 14.6782 38.4086C13.7859 39.1723 12.1949 39.9027 10.9282 39.9027C8.10851 39.9027 6.06119 37.7686 6.06119 34.9489C6.06119 29.9961 6.52161 25.3607 7.14893 20.4496C7.55908 17.7836 8.51594 13.7484 11.6313 9.72695C14.9749 5.28314 19.3728 3.6332 24.5889 3.6332C30.6221 3.6332 37.7771 7.59527 40.1079 13.0375C41.1347 15.4351 42.1246 17.7864 43.6235 19.5707C45.8964 22.2763 48.7535 23.8872 51.7388 25.8988Z" fill="url(#paint6_radial_1946_1462)"/>
<path d="M51.7388 25.8988C54.4344 27.7152 54.7257 31.4066 52.9089 33.6332C51.3842 35.981 48.4274 35.7719 45.9952 34.307L41.3431 31.4066L41.3431 53.4951C41.3431 56.2258 39.1295 58.4395 36.3988 58.4395C33.6681 58.4395 31.6118 56.2258 31.6118 53.4951L31.6118 41.1311C31.3004 42.9203 28.4824 44.1703 26.5728 43.6527C24.4325 43.0726 23.4723 41.9367 22.8374 40.1078C22.0757 41.7191 19.7759 42.5687 18.0034 42.1146C15.6274 41.5059 15.0298 39.6977 14.6782 38.4086C13.7859 39.1723 12.1949 39.9027 10.9282 39.9027C8.10851 39.9027 6.06119 37.7686 6.06119 34.9489C6.06119 29.9961 6.52161 25.3607 7.14893 20.4496C7.55908 17.7836 8.51594 13.7484 11.6313 9.72695C14.9749 5.28314 19.3728 3.6332 24.5889 3.6332C30.6221 3.6332 37.7771 7.59527 40.1079 13.0375C41.1347 15.4351 42.1246 17.7864 43.6235 19.5707C45.8964 22.2763 48.7535 23.8872 51.7388 25.8988Z" fill="url(#paint7_radial_1946_1462)"/>
<path d="M51.7388 25.8988C54.4344 27.7152 54.7257 31.4066 52.9089 33.6332C51.3842 35.981 48.4274 35.7719 45.9952 34.307L41.3431 31.4066L41.3431 53.4951C41.3431 56.2258 39.1295 58.4395 36.3988 58.4395C33.6681 58.4395 31.6118 56.2258 31.6118 53.4951L31.6118 41.1311C31.3004 42.9203 28.4824 44.1703 26.5728 43.6527C24.4325 43.0726 23.4723 41.9367 22.8374 40.1078C22.0757 41.7191 19.7759 42.5687 18.0034 42.1146C15.6274 41.5059 15.0298 39.6977 14.6782 38.4086C13.7859 39.1723 12.1949 39.9027 10.9282 39.9027C8.10851 39.9027 6.06119 37.7686 6.06119 34.9489C6.06119 29.9961 6.52161 25.3607 7.14893 20.4496C7.55908 17.7836 8.51594 13.7484 11.6313 9.72695C14.9749 5.28314 19.3728 3.6332 24.5889 3.6332C30.6221 3.6332 37.7771 7.59527 40.1079 13.0375C41.1347 15.4351 42.1246 17.7864 43.6235 19.5707C45.8964 22.2763 48.7535 23.8872 51.7388 25.8988Z" fill="url(#paint8_radial_1946_1462)"/>
<path d="M51.7388 25.8988C54.4344 27.7152 54.7257 31.4066 52.9089 33.6332C51.3842 35.981 48.4274 35.7719 45.9952 34.307L41.3431 31.4066L41.3431 53.4951C41.3431 56.2258 39.1295 58.4395 36.3988 58.4395C33.6681 58.4395 31.6118 56.2258 31.6118 53.4951L31.6118 41.1311C31.3004 42.9203 28.4824 44.1703 26.5728 43.6527C24.4325 43.0726 23.4723 41.9367 22.8374 40.1078C22.0757 41.7191 19.7759 42.5687 18.0034 42.1146C15.6274 41.5059 15.0298 39.6977 14.6782 38.4086C13.7859 39.1723 12.1949 39.9027 10.9282 39.9027C8.10851 39.9027 6.06119 37.7686 6.06119 34.9489C6.06119 29.9961 6.52161 25.3607 7.14893 20.4496C7.55908 17.7836 8.51594 13.7484 11.6313 9.72695C14.9749 5.28314 19.3728 3.6332 24.5889 3.6332C30.6221 3.6332 37.7771 7.59527 40.1079 13.0375C41.1347 15.4351 42.1246 17.7864 43.6235 19.5707C45.8964 22.2763 48.7535 23.8872 51.7388 25.8988Z" fill="url(#paint9_radial_1946_1462)"/>
<path d="M51.7388 25.8988C54.4344 27.7152 54.7257 31.4066 52.9089 33.6332C51.3842 35.981 48.4274 35.7719 45.9952 34.307L41.3431 31.4066L41.3431 53.4951C41.3431 56.2258 39.1295 58.4395 36.3988 58.4395C33.6681 58.4395 31.6118 56.2258 31.6118 53.4951L31.6118 41.1311C31.3004 42.9203 28.4824 44.1703 26.5728 43.6527C24.4325 43.0726 23.4723 41.9367 22.8374 40.1078C22.0757 41.7191 19.7759 42.5687 18.0034 42.1146C15.6274 41.5059 15.0298 39.6977 14.6782 38.4086C13.7859 39.1723 12.1949 39.9027 10.9282 39.9027C8.10851 39.9027 6.06119 37.7686 6.06119 34.9489C6.06119 29.9961 6.52161 25.3607 7.14893 20.4496C7.55908 17.7836 8.51594 13.7484 11.6313 9.72695C14.9749 5.28314 19.3728 3.6332 24.5889 3.6332C30.6221 3.6332 37.7771 7.59527 40.1079 13.0375C41.1347 15.4351 42.1246 17.7864 43.6235 19.5707C45.8964 22.2763 48.7535 23.8872 51.7388 25.8988Z" fill="url(#paint10_radial_1946_1462)"/>
<path d="M51.7388 25.8988C54.4344 27.7152 54.7257 31.4066 52.9089 33.6332C51.3842 35.981 48.4274 35.7719 45.9952 34.307L41.3431 31.4066L41.3431 53.4951C41.3431 56.2258 39.1295 58.4395 36.3988 58.4395C33.6681 58.4395 31.6118 56.2258 31.6118 53.4951L31.6118 41.1311C31.3004 42.9203 28.4824 44.1703 26.5728 43.6527C24.4325 43.0726 23.4723 41.9367 22.8374 40.1078C22.0757 41.7191 19.7759 42.5687 18.0034 42.1146C15.6274 41.5059 15.0298 39.6977 14.6782 38.4086C13.7859 39.1723 12.1949 39.9027 10.9282 39.9027C8.10851 39.9027 6.06119 37.7686 6.06119 34.9489C6.06119 29.9961 6.52161 25.3607 7.14893 20.4496C7.55908 17.7836 8.51594 13.7484 11.6313 9.72695C14.9749 5.28314 19.3728 3.6332 24.5889 3.6332C30.6221 3.6332 37.7771 7.59527 40.1079 13.0375C41.1347 15.4351 42.1246 17.7864 43.6235 19.5707C45.8964 22.2763 48.7535 23.8872 51.7388 25.8988Z" fill="url(#paint11_radial_1946_1462)"/>
<path d="M51.7388 25.8988C54.4344 27.7152 54.7257 31.4066 52.9089 33.6332C51.3842 35.981 48.4274 35.7719 45.9952 34.307L41.3431 31.4066L41.3431 53.4951C41.3431 56.2258 39.1295 58.4395 36.3988 58.4395C33.6681 58.4395 31.6118 56.2258 31.6118 53.4951L31.6118 41.1311C31.3004 42.9203 28.4824 44.1703 26.5728 43.6527C24.4325 43.0726 23.4723 41.9367 22.8374 40.1078C22.0757 41.7191 19.7759 42.5687 18.0034 42.1146C15.6274 41.5059 15.0298 39.6977 14.6782 38.4086C13.7859 39.1723 12.1949 39.9027 10.9282 39.9027C8.10851 39.9027 6.06119 37.7686 6.06119 34.9489C6.06119 29.9961 6.52161 25.3607 7.14893 20.4496C7.55908 17.7836 8.51594 13.7484 11.6313 9.72695C14.9749 5.28314 19.3728 3.6332 24.5889 3.6332C30.6221 3.6332 37.7771 7.59527 40.1079 13.0375C41.1347 15.4351 42.1246 17.7864 43.6235 19.5707C45.8964 22.2763 48.7535 23.8872 51.7388 25.8988Z" fill="url(#paint12_radial_1946_1462)"/>
<path d="M51.7388 25.8988C54.4344 27.7152 54.7257 31.4066 52.9089 33.6332C51.3842 35.981 48.4274 35.7719 45.9952 34.307L41.3431 31.4066L41.3431 53.4951C41.3431 56.2258 39.1295 58.4395 36.3988 58.4395C33.6681 58.4395 31.6118 56.2258 31.6118 53.4951L31.6118 41.1311C31.3004 42.9203 28.4824 44.1703 26.5728 43.6527C24.4325 43.0726 23.4723 41.9367 22.8374 40.1078C22.0757 41.7191 19.7759 42.5687 18.0034 42.1146C15.6274 41.5059 15.0298 39.6977 14.6782 38.4086C13.7859 39.1723 12.1949 39.9027 10.9282 39.9027C8.10851 39.9027 6.06119 37.7686 6.06119 34.9489C6.06119 29.9961 6.52161 25.3607 7.14893 20.4496C7.55908 17.7836 8.51594 13.7484 11.6313 9.72695C14.9749 5.28314 19.3728 3.6332 24.5889 3.6332C30.6221 3.6332 37.7771 7.59527 40.1079 13.0375C41.1347 15.4351 42.1246 17.7864 43.6235 19.5707C45.8964 22.2763 48.7535 23.8872 51.7388 25.8988Z" fill="url(#paint13_radial_1946_1462)"/>
<path d="M51.7388 25.8988C54.4344 27.7152 54.7257 31.4066 52.9089 33.6332C51.3842 35.981 48.4274 35.7719 45.9952 34.307L41.3431 31.4066L41.3431 53.4951C41.3431 56.2258 39.1295 58.4395 36.3988 58.4395C33.6681 58.4395 31.6118 56.2258 31.6118 53.4951L31.6118 41.1311C31.3004 42.9203 28.4824 44.1703 26.5728 43.6527C24.4325 43.0726 23.4723 41.9367 22.8374 40.1078C22.0757 41.7191 19.7759 42.5687 18.0034 42.1146C15.6274 41.5059 15.0298 39.6977 14.6782 38.4086C13.7859 39.1723 12.1949 39.9027 10.9282 39.9027C8.10851 39.9027 6.06119 37.7686 6.06119 34.9489C6.06119 29.9961 6.52161 25.3607 7.14893 20.4496C7.55908 17.7836 8.51594 13.7484 11.6313 9.72695C14.9749 5.28314 19.3728 3.6332 24.5889 3.6332C30.6221 3.6332 37.7771 7.59527 40.1079 13.0375C41.1347 15.4351 42.1246 17.7864 43.6235 19.5707C45.8964 22.2763 48.7535 23.8872 51.7388 25.8988Z" fill="url(#paint14_radial_1946_1462)"/>
<path d="M51.7388 25.8988C54.4344 27.7152 54.7257 31.4066 52.9089 33.6332C51.3842 35.981 48.4274 35.7719 45.9952 34.307L41.3431 31.4066L41.3431 53.4951C41.3431 56.2258 39.1295 58.4395 36.3988 58.4395C33.6681 58.4395 31.6118 56.2258 31.6118 53.4951L31.6118 41.1311C31.3004 42.9203 28.4824 44.1703 26.5728 43.6527C24.4325 43.0726 23.4723 41.9367 22.8374 40.1078C22.0757 41.7191 19.7759 42.5687 18.0034 42.1146C15.6274 41.5059 15.0298 39.6977 14.6782 38.4086C13.7859 39.1723 12.1949 39.9027 10.9282 39.9027C8.10851 39.9027 6.06119 37.7686 6.06119 34.9489C6.06119 29.9961 6.52161 25.3607 7.14893 20.4496C7.55908 17.7836 8.51594 13.7484 11.6313 9.72695C14.9749 5.28314 19.3728 3.6332 24.5889 3.6332C30.6221 3.6332 37.7771 7.59527 40.1079 13.0375C41.1347 15.4351 42.1246 17.7864 43.6235 19.5707C45.8964 22.2763 48.7535 23.8872 51.7388 25.8988Z" fill="url(#paint15_radial_1946_1462)"/>
<path d="M51.7388 25.8988C54.4344 27.7152 54.7257 31.4066 52.9089 33.6332C51.3842 35.981 48.4274 35.7719 45.9952 34.307L41.3431 31.4066L41.3431 53.4951C41.3431 56.2258 39.1295 58.4395 36.3988 58.4395C33.6681 58.4395 31.6118 56.2258 31.6118 53.4951L31.6118 41.1311C31.3004 42.9203 28.4824 44.1703 26.5728 43.6527C24.4325 43.0726 23.4723 41.9367 22.8374 40.1078C22.0757 41.7191 19.7759 42.5687 18.0034 42.1146C15.6274 41.5059 15.0298 39.6977 14.6782 38.4086C13.7859 39.1723 12.1949 39.9027 10.9282 39.9027C8.10851 39.9027 6.06119 37.7686 6.06119 34.9489C6.06119 29.9961 6.52161 25.3607 7.14893 20.4496C7.55908 17.7836 8.51594 13.7484 11.6313 9.72695C14.9749 5.28314 19.3728 3.6332 24.5889 3.6332C30.6221 3.6332 37.7771 7.59527 40.1079 13.0375C41.1347 15.4351 42.1246 17.7864 43.6235 19.5707C45.8964 22.2763 48.7535 23.8872 51.7388 25.8988Z" fill="url(#paint16_radial_1946_1462)"/>
<path d="M51.7388 25.8988C54.4344 27.7152 54.7257 31.4066 52.9089 33.6332C51.3842 35.981 48.4274 35.7719 45.9952 34.307L41.3431 31.4066L41.3431 53.4951C41.3431 56.2258 39.1295 58.4395 36.3988 58.4395C33.6681 58.4395 31.6118 56.2258 31.6118 53.4951L31.6118 41.1311C31.3004 42.9203 28.4824 44.1703 26.5728 43.6527C24.4325 43.0726 23.4723 41.9367 22.8374 40.1078C22.0757 41.7191 19.7759 42.5687 18.0034 42.1146C15.6274 41.5059 15.0298 39.6977 14.6782 38.4086C13.7859 39.1723 12.1949 39.9027 10.9282 39.9027C8.10851 39.9027 6.06119 37.7686 6.06119 34.9489C6.06119 29.9961 6.52161 25.3607 7.14893 20.4496C7.55908 17.7836 8.51594 13.7484 11.6313 9.72695C14.9749 5.28314 19.3728 3.6332 24.5889 3.6332C30.6221 3.6332 37.7771 7.59527 40.1079 13.0375C41.1347 15.4351 42.1246 17.7864 43.6235 19.5707C45.8964 22.2763 48.7535 23.8872 51.7388 25.8988Z" fill="url(#paint17_radial_1946_1462)"/>
<path d="M51.7388 25.8988C54.4344 27.7152 54.7257 31.4066 52.9089 33.6332C51.3842 35.981 48.4274 35.7719 45.9952 34.307L41.3431 31.4066L41.3431 53.4951C41.3431 56.2258 39.1295 58.4395 36.3988 58.4395C33.6681 58.4395 31.6118 56.2258 31.6118 53.4951L31.6118 41.1311C31.3004 42.9203 28.4824 44.1703 26.5728 43.6527C24.4325 43.0726 23.4723 41.9367 22.8374 40.1078C22.0757 41.7191 19.7759 42.5687 18.0034 42.1146C15.6274 41.5059 15.0298 39.6977 14.6782 38.4086C13.7859 39.1723 12.1949 39.9027 10.9282 39.9027C8.10851 39.9027 6.06119 37.7686 6.06119 34.9489C6.06119 29.9961 6.52161 25.3607 7.14893 20.4496C7.55908 17.7836 8.51594 13.7484 11.6313 9.72695C14.9749 5.28314 19.3728 3.6332 24.5889 3.6332C30.6221 3.6332 37.7771 7.59527 40.1079 13.0375C41.1347 15.4351 42.1246 17.7864 43.6235 19.5707C45.8964 22.2763 48.7535 23.8872 51.7388 25.8988Z" fill="url(#paint18_radial_1946_1462)"/>
<path d="M51.7388 25.8988C54.4344 27.7152 54.7257 31.4066 52.9089 33.6332C51.3842 35.981 48.4274 35.7719 45.9952 34.307L41.3431 31.4066L41.3431 53.4951C41.3431 56.2258 39.1295 58.4395 36.3988 58.4395C33.6681 58.4395 31.6118 56.2258 31.6118 53.4951L31.6118 41.1311C31.3004 42.9203 28.4824 44.1703 26.5728 43.6527C24.4325 43.0726 23.4723 41.9367 22.8374 40.1078C22.0757 41.7191 19.7759 42.5687 18.0034 42.1146C15.6274 41.5059 15.0298 39.6977 14.6782 38.4086C13.7859 39.1723 12.1949 39.9027 10.9282 39.9027C8.10851 39.9027 6.06119 37.7686 6.06119 34.9489C6.06119 29.9961 6.52161 25.3607 7.14893 20.4496C7.55908 17.7836 8.51594 13.7484 11.6313 9.72695C14.9749 5.28314 19.3728 3.6332 24.5889 3.6332C30.6221 3.6332 37.7771 7.59527 40.1079 13.0375C41.1347 15.4351 42.1246 17.7864 43.6235 19.5707C45.8964 22.2763 48.7535 23.8872 51.7388 25.8988Z" fill="url(#paint19_radial_1946_1462)"/>
<path d="M51.7388 25.8988C54.4344 27.7152 54.7257 31.4066 52.9089 33.6332C51.3842 35.981 48.4274 35.7719 45.9952 34.307L41.3431 31.4066L41.3431 53.4951C41.3431 56.2258 39.1295 58.4395 36.3988 58.4395C33.6681 58.4395 31.6118 56.2258 31.6118 53.4951L31.6118 41.1311C31.3004 42.9203 28.4824 44.1703 26.5728 43.6527C24.4325 43.0726 23.4723 41.9367 22.8374 40.1078C22.0757 41.7191 19.7759 42.5687 18.0034 42.1146C15.6274 41.5059 15.0298 39.6977 14.6782 38.4086C13.7859 39.1723 12.1949 39.9027 10.9282 39.9027C8.10851 39.9027 6.06119 37.7686 6.06119 34.9489C6.06119 29.9961 6.52161 25.3607 7.14893 20.4496C7.55908 17.7836 8.51594 13.7484 11.6313 9.72695C14.9749 5.28314 19.3728 3.6332 24.5889 3.6332C30.6221 3.6332 37.7771 7.59527 40.1079 13.0375C41.1347 15.4351 42.1246 17.7864 43.6235 19.5707C45.8964 22.2763 48.7535 23.8872 51.7388 25.8988Z" fill="url(#paint20_radial_1946_1462)"/>
<path d="M51.7388 25.8988C54.4344 27.7152 54.7257 31.4066 52.9089 33.6332C51.3842 35.981 48.4274 35.7719 45.9952 34.307L41.3431 31.4066L41.3431 53.4951C41.3431 56.2258 39.1295 58.4395 36.3988 58.4395C33.6681 58.4395 31.6118 56.2258 31.6118 53.4951L31.6118 41.1311C31.3004 42.9203 28.4824 44.1703 26.5728 43.6527C24.4325 43.0726 23.4723 41.9367 22.8374 40.1078C22.0757 41.7191 19.7759 42.5687 18.0034 42.1146C15.6274 41.5059 15.0298 39.6977 14.6782 38.4086C13.7859 39.1723 12.1949 39.9027 10.9282 39.9027C8.10851 39.9027 6.06119 37.7686 6.06119 34.9489C6.06119 29.9961 6.52161 25.3607 7.14893 20.4496C7.55908 17.7836 8.51594 13.7484 11.6313 9.72695C14.9749 5.28314 19.3728 3.6332 24.5889 3.6332C30.6221 3.6332 37.7771 7.59527 40.1079 13.0375C41.1347 15.4351 42.1246 17.7864 43.6235 19.5707C45.8964 22.2763 48.7535 23.8872 51.7388 25.8988Z" fill="url(#paint21_radial_1946_1462)"/>
<path d="M51.7388 25.8988C54.4344 27.7152 54.7257 31.4066 52.9089 33.6332C51.3842 35.981 48.4274 35.7719 45.9952 34.307L41.3431 31.4066L41.3431 53.4951C41.3431 56.2258 39.1295 58.4395 36.3988 58.4395C33.6681 58.4395 31.6118 56.2258 31.6118 53.4951L31.6118 41.1311C31.3004 42.9203 28.4824 44.1703 26.5728 43.6527C24.4325 43.0726 23.4723 41.9367 22.8374 40.1078C22.0757 41.7191 19.7759 42.5687 18.0034 42.1146C15.6274 41.5059 15.0298 39.6977 14.6782 38.4086C13.7859 39.1723 12.1949 39.9027 10.9282 39.9027C8.10851 39.9027 6.06119 37.7686 6.06119 34.9489C6.06119 29.9961 6.52161 25.3607 7.14893 20.4496C7.55908 17.7836 8.51594 13.7484 11.6313 9.72695C14.9749 5.28314 19.3728 3.6332 24.5889 3.6332C30.6221 3.6332 37.7771 7.59527 40.1079 13.0375C41.1347 15.4351 42.1246 17.7864 43.6235 19.5707C45.8964 22.2763 48.7535 23.8872 51.7388 25.8988Z" fill="url(#paint22_radial_1946_1462)"/>
<path d="M51.7388 25.8988C54.4344 27.7152 54.7257 31.4066 52.9089 33.6332C51.3842 35.981 48.4274 35.7719 45.9952 34.307L41.3431 31.4066L41.3431 53.4951C41.3431 56.2258 39.1295 58.4395 36.3988 58.4395C33.6681 58.4395 31.6118 56.2258 31.6118 53.4951L31.6118 41.1311C31.3004 42.9203 28.4824 44.1703 26.5728 43.6527C24.4325 43.0726 23.4723 41.9367 22.8374 40.1078C22.0757 41.7191 19.7759 42.5687 18.0034 42.1146C15.6274 41.5059 15.0298 39.6977 14.6782 38.4086C13.7859 39.1723 12.1949 39.9027 10.9282 39.9027C8.10851 39.9027 6.06119 37.7686 6.06119 34.9489C6.06119 29.9961 6.52161 25.3607 7.14893 20.4496C7.55908 17.7836 8.51594 13.7484 11.6313 9.72695C14.9749 5.28314 19.3728 3.6332 24.5889 3.6332C30.6221 3.6332 37.7771 7.59527 40.1079 13.0375C41.1347 15.4351 42.1246 17.7864 43.6235 19.5707C45.8964 22.2763 48.7535 23.8872 51.7388 25.8988Z" fill="url(#paint23_radial_1946_1462)"/>
<path d="M51.7388 25.8988C54.4344 27.7152 54.7257 31.4066 52.9089 33.6332C51.3842 35.981 48.4274 35.7719 45.9952 34.307L41.3431 31.4066L41.3431 53.4951C41.3431 56.2258 39.1295 58.4395 36.3988 58.4395C33.6681 58.4395 31.6118 56.2258 31.6118 53.4951L31.6118 41.1311C31.3004 42.9203 28.4824 44.1703 26.5728 43.6527C24.4325 43.0726 23.4723 41.9367 22.8374 40.1078C22.0757 41.7191 19.7759 42.5687 18.0034 42.1146C15.6274 41.5059 15.0298 39.6977 14.6782 38.4086C13.7859 39.1723 12.1949 39.9027 10.9282 39.9027C8.10851 39.9027 6.06119 37.7686 6.06119 34.9489C6.06119 29.9961 6.52161 25.3607 7.14893 20.4496C7.55908 17.7836 8.51594 13.7484 11.6313 9.72695C14.9749 5.28314 19.3728 3.6332 24.5889 3.6332C30.6221 3.6332 37.7771 7.59527 40.1079 13.0375C41.1347 15.4351 42.1246 17.7864 43.6235 19.5707C45.8964 22.2763 48.7535 23.8872 51.7388 25.8988Z" fill="url(#paint24_radial_1946_1462)"/>
<path d="M31.6234 35.799C31.6234 40.1643 31.623 53.3007 31.623 53.3007C31.623 56.0314 33.6635 58.4175 36.3941 58.4175C39.1248 58.4175 41.3385 56.2039 41.3385 53.4732V31.4335C39.1707 27.6571 34.3367 27.8005 31.6234 35.799Z" fill="#E3ACA3"/>
<path d="M31.6234 35.799C31.6234 40.1643 31.623 53.3007 31.623 53.3007C31.623 56.0314 33.6635 58.4175 36.3941 58.4175C39.1248 58.4175 41.3385 56.2039 41.3385 53.4732V31.4335C39.1707 27.6571 34.3367 27.8005 31.6234 35.799Z" fill="url(#paint25_linear_1946_1462)"/>
<path d="M31.6234 35.799C31.6234 40.1643 31.623 53.3007 31.623 53.3007C31.623 56.0314 33.6635 58.4175 36.3941 58.4175C39.1248 58.4175 41.3385 56.2039 41.3385 53.4732V31.4335C39.1707 27.6571 34.3367 27.8005 31.6234 35.799Z" fill="url(#paint26_linear_1946_1462)"/>
<path d="M31.6234 35.799C31.6234 40.1643 31.623 53.3007 31.623 53.3007C31.623 56.0314 33.6635 58.4175 36.3941 58.4175C39.1248 58.4175 41.3385 56.2039 41.3385 53.4732V31.4335C39.1707 27.6571 34.3367 27.8005 31.6234 35.799Z" fill="url(#paint27_radial_1946_1462)"/>
<path d="M31.6234 35.799C31.6234 40.1643 31.623 53.3007 31.623 53.3007C31.623 56.0314 33.6635 58.4175 36.3941 58.4175C39.1248 58.4175 41.3385 56.2039 41.3385 53.4732V31.4335C39.1707 27.6571 34.3367 27.8005 31.6234 35.799Z" fill="url(#paint28_radial_1946_1462)"/>
<path d="M31.6234 35.799C31.6234 40.1643 31.623 53.3007 31.623 53.3007C31.623 56.0314 33.6635 58.4175 36.3941 58.4175C39.1248 58.4175 41.3385 56.2039 41.3385 53.4732V31.4335C39.1707 27.6571 34.3367 27.8005 31.6234 35.799Z" fill="url(#paint29_radial_1946_1462)"/>
<path d="M31.6234 35.799C31.6234 40.1643 31.623 53.3007 31.623 53.3007C31.623 56.0314 33.6635 58.4175 36.3941 58.4175C39.1248 58.4175 41.3385 56.2039 41.3385 53.4732V31.4335C39.1707 27.6571 34.3367 27.8005 31.6234 35.799Z" fill="url(#paint30_radial_1946_1462)"/>
<path d="M51.7388 25.8988C54.4344 27.7152 54.7257 31.4066 52.9089 33.6332C51.3842 35.981 48.4274 35.7719 45.9952 34.307L41.3431 31.4066L41.3431 53.4951C41.3431 56.2258 39.1295 58.4395 36.3988 58.4395C33.6681 58.4395 31.6118 56.2258 31.6118 53.4951L31.6118 41.1311C31.3004 42.9203 28.4824 44.1703 26.5728 43.6527C24.4325 43.0726 23.4723 41.9367 22.8374 40.1078C22.0757 41.7191 19.7759 42.5687 18.0034 42.1146C15.6274 41.5059 15.0298 39.6977 14.6782 38.4086C13.7859 39.1723 12.1949 39.9027 10.9282 39.9027C8.10851 39.9027 6.06119 37.7686 6.06119 34.9489C6.06119 29.9961 6.52161 25.3607 7.14893 20.4496C7.55908 17.7836 8.51594 13.7484 11.6313 9.72695C14.9749 5.28314 19.3728 3.6332 24.5889 3.6332C30.6221 3.6332 37.7771 7.59527 40.1079 13.0375C41.1347 15.4351 42.1246 17.7864 43.6235 19.5707C45.8964 22.2763 48.7535 23.8872 51.7388 25.8988Z" fill="url(#paint31_radial_1946_1462)"/>
<defs>
<radialGradient id="paint0_radial_1946_1462" cx="0" cy="0" r="1" gradientUnits="userSpaceOnUse" gradientTransform="translate(38.3208 10.8979) rotate(133.656) scale(38.8739 57.2756)">
<stop stop-color="#F9D7C2"/>
<stop offset="0.43303" stop-color="#FDC8B3"/>
<stop offset="1" stop-color="#DFABA4"/>
</radialGradient>
<radialGradient id="paint1_radial_1946_1462" cx="0" cy="0" r="1" gradientUnits="userSpaceOnUse" gradientTransform="translate(31.8755 25.1948) rotate(10.8432) scale(47.9658 60.7977)">
<stop offset="0.342679" stop-color="#D09774" stop-opacity="0"/>
<stop offset="0.65069" stop-color="#D8A88C"/>
</radialGradient>
<radialGradient id="paint2_radial_1946_1462" cx="0" cy="0" r="1" gradientUnits="userSpaceOnUse" gradientTransform="translate(45.5864 10.6636) rotate(54.2992) scale(28.7169 16.9203)">
<stop offset="0.170431" stop-color="#F5CABC"/>
<stop offset="1" stop-color="#F5CABC" stop-opacity="0"/>
</radialGradient>
<radialGradient id="paint3_radial_1946_1462" cx="0" cy="0" r="1" gradientUnits="userSpaceOnUse" gradientTransform="translate(46.6411 34.8042) rotate(40.3226) scale(18.291 6.09801)">
<stop stop-color="#C78589"/>
<stop offset="1" stop-color="#FECAB2" stop-opacity="0"/>
</radialGradient>
<radialGradient id="paint4_radial_1946_1462" cx="0" cy="0" r="1" gradientUnits="userSpaceOnUse" gradientTransform="translate(38.9067 25.6636) rotate(90) scale(12.5977 4.45313)">
<stop offset="0.305419" stop-color="#FECFB8"/>
<stop offset="1" stop-color="#FECFB8" stop-opacity="0"/>
</radialGradient>
<radialGradient id="paint5_radial_1946_1462" cx="0" cy="0" r="1" gradientUnits="userSpaceOnUse" gradientTransform="translate(39.2583 16.6401) rotate(56.6788) scale(15.1462 4.63711)">
<stop stop-color="#FDDFC5"/>
<stop offset="1" stop-color="#FDDFC5" stop-opacity="0"/>
</radialGradient>
<radialGradient id="paint6_radial_1946_1462" cx="0" cy="0" r="1" gradientUnits="userSpaceOnUse" gradientTransform="translate(48.5161 26.6011) rotate(33.2471) scale(12.6111 2.69337)">
<stop stop-color="#FDDFC5"/>
<stop offset="1" stop-color="#FDDFC5" stop-opacity="0"/>
</radialGradient>
<radialGradient id="paint7_radial_1946_1462" cx="0" cy="0" r="1" gradientUnits="userSpaceOnUse" gradientTransform="translate(16.7583 40.898) rotate(5.54978) scale(29.0816 21.1842)">
<stop stop-color="#E3ACA7"/>
<stop offset="1" stop-color="#E3ACA7" stop-opacity="0"/>
</radialGradient>
<radialGradient id="paint8_radial_1946_1462" cx="0" cy="0" r="1" gradientUnits="userSpaceOnUse" gradientTransform="translate(14.5317 37.3823) rotate(92.454) scale(8.21065 4.04627)">
<stop stop-color="#C48381"/>
<stop offset="1" stop-color="#C48381" stop-opacity="0"/>
</radialGradient>
<radialGradient id="paint9_radial_1946_1462" cx="0" cy="0" r="1" gradientUnits="userSpaceOnUse" gradientTransform="translate(3.51612 35.3901) rotate(80.1433) scale(14.8679 6.11241)">
<stop offset="0.190748" stop-color="#C48381"/>
<stop offset="1" stop-color="#C48381" stop-opacity="0"/>
</radialGradient>
<radialGradient id="paint10_radial_1946_1462" cx="0" cy="0" r="1" gradientUnits="userSpaceOnUse" gradientTransform="translate(23.2036 39.0229) rotate(90.4407) scale(7.61741 3.75392)">
<stop stop-color="#C48381"/>
<stop offset="1" stop-color="#C48381" stop-opacity="0"/>
</radialGradient>
<radialGradient id="paint11_radial_1946_1462" cx="0" cy="0" r="1" gradientUnits="userSpaceOnUse" gradientTransform="translate(31.9927 41.4839) rotate(103.251) scale(8.42751 4.15314)">
<stop offset="0.265204" stop-color="#D28677"/>
<stop offset="1" stop-color="#D28677" stop-opacity="0"/>
</radialGradient>
<radialGradient id="paint12_radial_1946_1462" cx="0" cy="0" r="1" gradientUnits="userSpaceOnUse" gradientTransform="translate(21.7388 44.5894) rotate(-165.026) scale(40.8197 6.50687)">
<stop stop-color="#ED7FAE"/>
<stop offset="1" stop-color="#ED7FAE" stop-opacity="0"/>
</radialGradient>
<radialGradient id="paint13_radial_1946_1462" cx="0" cy="0" r="1" gradientUnits="userSpaceOnUse" gradientTransform="translate(31.1724 35.9761) rotate(104.759) scale(4.3627 2.15022)">
<stop stop-color="#DB9570"/>
<stop offset="1" stop-color="#DB9570" stop-opacity="0"/>
</radialGradient>
<radialGradient id="paint14_radial_1946_1462" cx="0" cy="0" r="1" gradientUnits="userSpaceOnUse" gradientTransform="translate(33.3403 48.1636) rotate(-97.5394) scale(12.0574 5.07183)">
<stop offset="0.372582" stop-color="#663733"/>
<stop offset="1" stop-color="#663733" stop-opacity="0"/>
</radialGradient>
<radialGradient id="paint15_radial_1946_1462" cx="0" cy="0" r="1" gradientUnits="userSpaceOnUse" gradientTransform="translate(31.9341 41.4839) rotate(-90) scale(5.21484 1.10815)">
<stop stop-color="#462310"/>
<stop offset="1" stop-color="#462310" stop-opacity="0"/>
</radialGradient>
<radialGradient id="paint16_radial_1946_1462" cx="0" cy="0" r="1" gradientUnits="userSpaceOnUse" gradientTransform="translate(22.8521 40.1655) rotate(-87.2519) scale(3.66633 0.297021)">
<stop offset="0.553158" stop-color="#421619"/>
<stop offset="1" stop-color="#421619" stop-opacity="0"/>
</radialGradient>
<radialGradient id="paint17_radial_1946_1462" cx="0" cy="0" r="1" gradientUnits="userSpaceOnUse" gradientTransform="translate(22.3247 44.7065) rotate(-85.6525) scale(10.0484 1.77052)">
<stop offset="0.183271" stop-color="#542929"/>
<stop offset="1" stop-color="#542929" stop-opacity="0"/>
</radialGradient>
<radialGradient id="paint18_radial_1946_1462" cx="0" cy="0" r="1" gradientUnits="userSpaceOnUse" gradientTransform="translate(14.7075 39.1401) rotate(-87.6627) scale(4.31023 0.349186)">
<stop offset="0.259418" stop-color="#421619"/>
<stop offset="1" stop-color="#421619" stop-opacity="0"/>
</radialGradient>
<radialGradient id="paint19_radial_1946_1462" cx="0" cy="0" r="1" gradientUnits="userSpaceOnUse" gradientTransform="translate(14.2974 45.1753) rotate(-90) scale(12.0117 2.92969)">
<stop offset="0.395122" stop-color="#A26060"/>
<stop offset="1" stop-color="#A26060" stop-opacity="0"/>
</radialGradient>
<radialGradient id="paint20_radial_1946_1462" cx="0" cy="0" r="1" gradientUnits="userSpaceOnUse" gradientTransform="translate(28.4185 38.4956) rotate(-78.1901) scale(6.5847 3.78145)">
<stop stop-color="#DFA8A4"/>
<stop offset="1" stop-color="#DFA8A4" stop-opacity="0"/>
</radialGradient>
<radialGradient id="paint21_radial_1946_1462" cx="0" cy="0" r="1" gradientUnits="userSpaceOnUse" gradientTransform="translate(19.8638 38.3784) rotate(-82.321) scale(5.26203 3.61739)">
<stop stop-color="#DFA8A4"/>
<stop offset="1" stop-color="#DFA8A4" stop-opacity="0"/>
</radialGradient>
<radialGradient id="paint22_radial_1946_1462" cx="0" cy="0" r="1" gradientUnits="userSpaceOnUse" gradientTransform="translate(11.5435 36.3276) rotate(-78.8049) scale(5.73411 2.93308)">
<stop stop-color="#DFA8A4"/>
<stop offset="1" stop-color="#DFA8A4" stop-opacity="0"/>
</radialGradient>
<radialGradient id="paint23_radial_1946_1462" cx="0" cy="0" r="1" gradientUnits="userSpaceOnUse" gradientTransform="translate(18.106 44.4136) rotate(-80.9335) scale(5.5775 34.9897)">
<stop stop-color="#955E6A"/>
<stop offset="1" stop-color="#955E6A" stop-opacity="0"/>
</radialGradient>
<radialGradient id="paint24_radial_1946_1462" cx="0" cy="0" r="1" gradientUnits="userSpaceOnUse" gradientTransform="translate(32.0806 42.3335) rotate(128.096) scale(4.65341 2.31213)">
<stop stop-color="#A85C60"/>
<stop offset="1" stop-color="#DD9297" stop-opacity="0"/>
</radialGradient>
<linearGradient id="paint25_linear_1946_1462" x1="41.3386" y1="43.3174" x2="27.8914" y2="43.3174" gradientUnits="userSpaceOnUse">
<stop stop-color="#F7C1A5"/>
<stop offset="0.12854" stop-color="#FFCEBB"/>
<stop offset="0.237473" stop-color="#FFCEBB"/>
<stop offset="0.555556" stop-color="#D09182"/>
<stop offset="0.77342" stop-color="#824438"/>
</linearGradient>
<linearGradient id="paint26_linear_1946_1462" x1="30.0007" y1="34.7444" x2="37.8523" y2="36.9124" gradientUnits="userSpaceOnUse">
<stop offset="0.241386" stop-color="#F5BFAE"/>
<stop offset="1" stop-color="#F5BFAE" stop-opacity="0"/>
</linearGradient>
<radialGradient id="paint27_radial_1946_1462" cx="0" cy="0" r="1" gradientUnits="userSpaceOnUse" gradientTransform="translate(27.364 44.8225) rotate(-69.7379) scale(13.3662 5.24044)">
<stop offset="0.334877" stop-color="#C58683"/>
<stop offset="1" stop-color="#C58683" stop-opacity="0"/>
</radialGradient>
<radialGradient id="paint28_radial_1946_1462" cx="0" cy="0" r="1" gradientUnits="userSpaceOnUse" gradientTransform="translate(31.2312 36.8538) rotate(113.629) scale(5.11648 1.73122)">
<stop stop-color="#DE9E85"/>
<stop offset="1" stop-color="#DE9E85" stop-opacity="0"/>
</radialGradient>
<radialGradient id="paint29_radial_1946_1462" cx="0" cy="0" r="1" gradientUnits="userSpaceOnUse" gradientTransform="translate(41.3386 31.6389) rotate(90) scale(6.21094 1.20117)">
<stop offset="0.396226" stop-color="#DFA9AE"/>
<stop offset="1" stop-color="#DFA9AE" stop-opacity="0"/>
</radialGradient>
<radialGradient id="paint30_radial_1946_1462" cx="0" cy="0" r="1" gradientUnits="userSpaceOnUse" gradientTransform="translate(36.4808 38.2014) rotate(90) scale(30.2344 15.9723)">
<stop offset="0.511628" stop-color="#C38690" stop-opacity="0"/>
<stop offset="0.782946" stop-color="#C48690"/>
</radialGradient>
<radialGradient id="paint31_radial_1946_1462" cx="0" cy="0" r="1" gradientUnits="userSpaceOnUse" gradientTransform="translate(38.438 29.9995) rotate(-90) scale(8.73047 4.86616)">
<stop stop-color="#F2BDAD"/>
<stop offset="1" stop-color="#F2BDAD" stop-opacity="0"/>
</radialGradient>
</defs>
</svg>
