<svg width="85" height="87" viewBox="0 0 85 87" fill="none" xmlns="http://www.w3.org/2000/svg">
<g clip-path="url(#clip0_2180_2255)">
<path fill-rule="evenodd" clip-rule="evenodd" d="M9.77021 0.890625L84.6831 19.1789L84.4436 20.1598C84.0177 20.0368 83.5649 19.9795 83.0975 19.9989C80.7701 20.0959 78.962 22.0612 79.059 24.3886C79.1416 26.3717 80.5806 27.9777 82.4443 28.3496L81.8838 30.6453C81.4581 30.5225 81.0057 30.4653 80.5387 30.4847C78.2113 30.5817 76.4031 32.547 76.5001 34.8744C76.5827 36.8571 78.0213 38.463 79.8845 38.8352L79.1415 41.8784C78.7144 41.7547 78.2604 41.697 77.7916 41.7165C75.4642 41.8135 73.6561 43.7788 73.7531 46.1062C73.8357 48.0906 75.2767 49.6975 77.1422 50.0679L76.8191 51.3914L1.90625 33.1032L2.22919 31.7803C2.55162 31.8443 2.88674 31.8714 3.22972 31.8571C5.5571 31.7602 7.36522 29.7949 7.26826 27.4675C7.19083 25.6088 5.92184 24.0813 4.22846 23.5908L4.97144 20.5474C5.29561 20.6123 5.63264 20.6398 5.97762 20.6254C8.30501 20.5284 10.1131 18.5631 10.0162 16.2357C9.93865 14.375 8.66698 12.8463 6.97083 12.3575L7.53214 10.0583C7.85627 10.1231 8.19325 10.1505 8.53819 10.1362C10.8656 10.0392 12.6737 8.07389 12.5768 5.7465C12.4992 3.88588 11.2276 2.35713 9.53153 1.86832L9.77021 0.890625Z" fill="url(#paint0_linear_2180_2255)"/>
<path d="M31.7321 21.1667C32.0533 21.2452 32.3341 21.2643 32.5745 21.2242C32.8174 21.1737 33.0134 21.0678 33.1626 20.9066C33.3221 20.7479 33.4347 20.5338 33.5005 20.2644C33.5663 19.995 33.5649 19.7531 33.4965 19.5387C33.4384 19.3269 33.3119 19.1478 33.1171 19.0014C32.9248 18.8447 32.668 18.7271 32.3468 18.6487C32.0255 18.5703 31.7383 18.555 31.485 18.603C31.2447 18.6431 31.0447 18.7426 30.8852 18.9013C30.736 19.0625 30.6286 19.2778 30.5628 19.5472C30.497 19.8166 30.4932 20.0573 30.5513 20.2691C30.6197 20.4834 30.7501 20.669 30.9424 20.8257C31.1476 20.9746 31.4108 21.0883 31.7321 21.1667ZM31.345 22.7522C31.1688 22.7092 30.9799 22.696 30.7782 22.7126C30.6541 22.7262 30.5454 22.7217 30.4522 22.6989C30.3693 22.6787 30.2732 22.6223 30.1641 22.5298C29.5689 22.0441 29.1068 21.5085 28.7775 20.9231C28.4483 20.3376 28.3647 19.7133 28.5266 19.0501C28.6733 18.4491 28.9603 17.9482 29.3875 17.5474C29.8251 17.1492 30.3398 16.8851 30.9315 16.755C31.5361 16.6171 32.1597 16.6266 32.8021 16.7835C33.4342 16.9378 33.9816 17.2142 34.4443 17.6126C34.9199 18.0032 35.255 18.4748 35.4495 19.0273C35.6544 19.5824 35.6834 20.1605 35.5367 20.7615C35.3824 21.3936 35.0359 21.8909 34.4972 22.2535C33.9714 22.6083 33.3455 22.8782 32.6196 23.0633C32.4568 23.1005 32.3275 23.1128 32.2317 23.1004C32.1385 23.0776 32.0179 23.0317 31.8701 22.9627C31.6547 22.8552 31.4797 22.7851 31.345 22.7522ZM30.3622 26.7779C30.7767 26.8791 31.1455 26.8978 31.4685 26.8339C31.7941 26.7597 32.0649 26.6172 32.2811 26.4064C32.4997 26.1853 32.6521 25.8986 32.7381 25.5463C32.8266 25.1836 32.8248 24.8538 32.7326 24.5567C32.643 24.2494 32.4643 23.9917 32.1967 23.7836C31.942 23.5677 31.6125 23.4104 31.2084 23.3117C30.7939 23.2106 30.4187 23.1958 30.0828 23.2675C29.7597 23.3314 29.4876 23.4791 29.2664 23.7106C29.0477 23.9317 28.8941 24.2236 28.8056 24.5862C28.7196 24.9386 28.7227 25.2632 28.8149 25.5602C28.9096 25.8469 29.0843 26.0981 29.339 26.3141C29.6067 26.5221 29.9477 26.6768 30.3622 26.7779ZM29.9069 28.6432C29.1608 28.461 28.5123 28.149 27.9614 27.7071C27.4208 27.2677 27.035 26.7343 26.8038 26.1069C26.5752 25.4691 26.5482 24.7928 26.7228 24.0778C26.8796 23.4353 27.1574 22.9047 27.556 22.486C27.9572 22.0569 28.4161 21.7517 28.9325 21.5703C29.4514 21.3786 29.971 21.2968 30.4911 21.3249C30.6309 21.3371 30.7358 21.3572 30.8058 21.3853C30.8862 21.4159 30.9744 21.4594 31.0704 21.5158C31.2417 21.6235 31.4155 21.6988 31.5917 21.7418C31.7367 21.7773 31.9296 21.7969 32.1702 21.8007C32.3125 21.8025 32.4212 21.8071 32.4962 21.8145C32.5817 21.8243 32.6879 21.8613 32.8151 21.9252C33.2793 22.1374 33.6924 22.4468 34.0542 22.8536C34.4186 23.25 34.6761 23.7246 34.8266 24.2774C34.9771 24.8302 34.9752 25.4227 34.8209 26.0548C34.6464 26.7698 34.3107 27.3576 33.814 27.8183C33.3197 28.2686 32.7263 28.5629 32.0338 28.7012C31.3515 28.8421 30.6426 28.8228 29.9069 28.6432ZM39.2228 28.7764C39.6684 28.8851 40.0743 28.8415 40.4406 28.6454C40.8094 28.439 41.1424 28.0646 41.4395 27.5223C41.7366 26.9799 41.9964 26.2528 42.219 25.3409C42.4391 24.4394 42.541 23.6847 42.5247 23.0768C42.5084 22.469 42.3829 21.9936 42.1482 21.6509C41.916 21.2977 41.5771 21.0668 41.1315 20.958C40.6859 20.8492 40.2787 20.898 39.9099 21.1044C39.5436 21.3005 39.2132 21.6645 38.9186 22.1965C38.6344 22.731 38.3823 23.449 38.1622 24.3506C37.9396 25.2624 37.83 26.0262 37.8334 26.6419C37.8471 27.2602 37.9701 27.7459 38.2023 28.099C38.4371 28.4418 38.7772 28.6676 39.2228 28.7764ZM38.7295 30.797C37.8694 30.5871 37.1892 30.1575 36.6889 29.5083C36.2015 28.8513 35.9059 28.038 35.8023 27.0684C35.7011 26.0885 35.7935 25.013 36.0793 23.8421C36.3601 22.6919 36.7699 21.7104 37.3087 20.8976C37.8475 20.0849 38.4833 19.5045 39.2161 19.1563C39.9618 18.8003 40.7647 18.7273 41.6248 18.9373C42.4849 19.1473 43.1586 19.5808 43.646 20.2378C44.1463 20.887 44.4483 21.6963 44.552 22.6659C44.666 23.638 44.5827 24.6992 44.3019 25.8494C44.016 27.0204 43.5972 28.0161 43.0456 28.8367C42.5068 29.6494 41.8645 30.2338 41.1188 30.5898C40.386 30.9379 39.5896 31.007 38.7295 30.797ZM47.0381 32.6277C47.0356 32.6381 47.0188 32.6395 46.9877 32.6319L44.9204 32.1272C44.91 32.1247 44.8997 32.1222 44.8893 32.1196C44.8918 32.1093 44.8996 32.1002 44.9124 32.0923L54.8473 22.3629C54.8499 22.3526 54.8667 22.3512 54.8978 22.3588L56.9806 22.8673C56.991 22.8698 56.9949 22.8762 56.9923 22.8866C57.0027 22.8891 57.0014 22.8943 56.9886 22.9021L47.0381 32.6277ZM48.2974 24.5685C48.4632 24.6089 48.6223 24.6094 48.7747 24.5697C48.94 24.5222 49.0831 24.4309 49.204 24.2957C49.3352 24.163 49.4273 23.9879 49.4805 23.7703C49.5361 23.5423 49.535 23.3444 49.4772 23.1766C49.4322 23.0009 49.3461 22.8591 49.2187 22.7511C49.1042 22.6353 48.9641 22.5572 48.7983 22.5167C48.6221 22.4737 48.4514 22.476 48.2861 22.5234C48.1233 22.5606 47.9763 22.6455 47.8451 22.7781C47.7268 22.903 47.6398 23.0794 47.5841 23.3073C47.531 23.5249 47.5269 23.7216 47.5719 23.8973C47.6272 24.0755 47.7173 24.2237 47.8421 24.342C47.9695 24.45 48.1212 24.5255 48.2974 24.5685ZM47.8762 26.2938C47.3581 26.1673 46.9157 25.933 46.549 25.591C46.1849 25.2386 45.9303 24.8196 45.7853 24.334C45.6404 23.8484 45.6286 23.357 45.75 22.8596C45.874 22.3518 46.1109 21.921 46.4608 21.5673C46.8132 21.2031 47.2309 20.9537 47.714 20.8191C48.1995 20.6742 48.7014 20.6649 49.2195 20.7914C49.7272 20.9153 50.158 21.1523 50.5118 21.5022C50.8785 21.8442 51.1343 22.258 51.2793 22.7436C51.4268 23.2188 51.4386 23.7103 51.3146 24.218C51.1932 24.7154 50.9562 25.1462 50.6038 25.5103C50.2539 25.8641 49.8362 26.1135 49.3506 26.2585C48.8754 26.406 48.384 26.4178 47.8762 26.2938ZM53.0872 32.474C53.253 32.5144 53.4121 32.5149 53.5645 32.4752C53.7298 32.4277 53.8729 32.3364 53.9937 32.2012C54.1249 32.0685 54.2171 31.8934 54.2702 31.6758C54.3259 31.4478 54.3248 31.2499 54.2669 31.0821C54.222 30.9064 54.1358 30.7646 54.0085 30.6566C53.894 30.5408 53.7539 30.4627 53.5881 30.4222C53.4119 30.3792 53.2412 30.3815 53.0758 30.4289C52.9131 30.4661 52.7661 30.5509 52.6349 30.6836C52.5166 30.8085 52.4296 30.9849 52.3739 31.2128C52.3208 31.4304 52.3167 31.6271 52.3617 31.8028C52.417 31.981 52.507 32.1292 52.6319 32.2475C52.7592 32.3555 52.911 32.431 53.0872 32.474ZM52.666 34.1993C52.1478 34.0728 51.7055 33.8385 51.3388 33.4965C50.9746 33.1441 50.7201 32.7251 50.5751 32.2395C50.4301 31.7539 50.4184 31.2625 50.5398 30.7651C50.6637 30.2573 50.9007 29.8265 51.2505 29.4728C51.603 29.1086 52.0207 28.8592 52.5037 28.7246C52.9893 28.5796 53.4911 28.5704 54.0093 28.6969C54.517 28.8208 54.9478 29.0578 55.3016 29.4077C55.6682 29.7497 55.9241 30.1635 56.069 30.6491C56.2165 31.1243 56.2283 31.6158 56.1044 32.1235C55.9829 32.6209 55.746 33.0517 55.3936 33.4158C55.0437 33.7696 54.626 34.019 54.1404 34.164C53.6652 34.3115 53.1737 34.3233 52.666 34.1993Z" fill="#303030"/>
<path d="M71.6824 16.0059L63.8184 48.2184" stroke="white"/>
<path d="M20.3273 3.2207L12.4629 35.4332" stroke="white"/>
<path fill-rule="evenodd" clip-rule="evenodd" d="M0.925781 55.8886L72.2777 36.2012L72.5345 37.132C72.12 37.228 71.7137 37.3916 71.3311 37.6263C69.4253 38.7956 68.8282 41.2884 69.9974 43.1943C70.9937 44.818 72.9507 45.4918 74.6868 44.9325L75.2904 47.1202C74.8755 47.2162 74.4688 47.3799 74.0858 47.6148C72.18 48.7841 71.5829 51.2769 72.7522 53.1828C73.7486 54.8069 75.7063 55.4806 77.4427 54.9206L78.2434 57.8225C77.8289 57.9186 77.4225 58.0821 77.0398 58.3169C75.134 59.4862 74.5369 61.979 75.7061 63.8849C76.7024 65.5087 78.6595 66.1824 80.3957 65.623L80.7433 66.8825L9.39136 86.5699L9.04308 85.3077C9.34516 85.2105 9.64056 85.076 9.92307 84.9026C11.8289 83.7334 12.426 81.2405 11.2567 79.3347C10.3219 77.811 8.54118 77.1239 6.89073 77.507L6.09381 74.6188C6.39543 74.5216 6.6904 74.3872 6.9725 74.2142C8.87832 73.0449 9.47543 70.552 8.30617 68.6462C7.37163 67.123 5.59156 66.4358 3.94149 66.8182L3.33675 64.6265C3.638 64.5294 3.93261 64.3951 4.21437 64.2222C6.1202 63.053 6.7173 60.5601 5.54804 58.6543C4.61371 57.1314 2.83422 56.4441 1.18445 56.8261L0.925781 55.8886Z" fill="url(#paint1_linear_2180_2255)"/>
<path d="M33.5191 69.6868C33.5247 69.7073 33.5122 69.7219 33.4813 69.7304L31.322 70.3262C31.3117 70.329 31.3014 70.3318 31.2911 70.3347C31.2883 70.3244 31.2855 70.3141 31.2826 70.3038L32.7782 59.7831L28.074 61.0811C28.0637 61.0839 28.0534 61.0867 28.0431 61.0896C28.0403 61.0793 28.0375 61.069 28.0346 61.0587L27.4984 59.1153C27.4956 59.1051 27.4941 59.0999 27.4941 59.0999C27.5016 59.0868 27.5105 59.0788 27.5207 59.076L34.6927 57.0971C34.703 57.0942 34.7096 57.098 34.7124 57.1083C34.7227 57.1054 34.7293 57.1091 34.7321 57.1194L35.1151 58.5075C35.1179 58.5178 35.1142 58.5244 35.1039 58.5272C35.1039 58.5272 35.1054 58.5324 35.1082 58.5427L33.5191 69.6868ZM41.7978 65.4605C42.24 65.3385 42.5732 65.1027 42.7977 64.7531C43.0193 64.3932 43.1277 63.9041 43.1231 63.2857C43.1184 62.6673 42.9913 61.9057 42.7416 61.0009C42.4948 60.1063 42.2162 59.3975 41.906 58.8745C41.5957 58.3516 41.2546 57.9975 40.8826 57.8125C40.5078 57.6171 40.0993 57.5804 39.6572 57.7024C39.2151 57.8244 38.8832 58.0654 38.6616 58.4253C38.4372 58.7749 38.3259 59.2538 38.3277 59.8619C38.3398 60.4671 38.4692 61.217 38.716 62.1116C38.9657 63.0164 39.242 63.7369 39.5448 64.273C39.8579 64.8063 40.2019 65.1706 40.5767 65.3659C40.9486 65.551 41.3557 65.5825 41.7978 65.4605ZM42.351 67.4656C41.4976 67.7011 40.6943 67.6572 39.9412 67.3338C39.1955 66.9974 38.5413 66.431 37.9785 65.6347C37.413 64.828 36.9699 63.8438 36.6493 62.6819C36.3344 61.5405 36.2143 60.4837 36.289 59.5115C36.3638 58.5392 36.6364 57.7226 37.1069 57.0617C37.5848 56.3876 38.2505 55.9328 39.104 55.6974C39.9574 55.4619 40.757 55.5124 41.5026 55.8488C42.2558 56.1721 42.9137 56.732 43.4765 57.5283C44.0495 58.3218 44.4935 59.2892 44.8084 60.4306C45.129 61.5925 45.2482 62.6661 45.166 63.6515C45.0912 64.6237 44.8149 65.4469 44.3369 66.121C43.8665 66.7819 43.2045 67.2301 42.351 67.4656ZM50.4993 65.0182C50.5022 65.0284 50.4882 65.0378 50.4573 65.0464L48.406 65.6124C48.3957 65.6152 48.3854 65.618 48.3751 65.6209C48.3723 65.6106 48.3746 65.5989 48.382 65.5858L52.3208 52.2498C52.318 52.2395 52.332 52.2301 52.3628 52.2216L54.4296 51.6513C54.4399 51.6485 54.4464 51.6522 54.4493 51.6625C54.4596 51.6596 54.461 51.6648 54.4535 51.6779L50.4993 65.0182ZM47.6742 57.3659C47.8388 57.3206 47.9779 57.2434 48.0917 57.1346C48.213 57.0126 48.2935 56.8631 48.3332 56.6862C48.3832 56.5064 48.3784 56.3086 48.3188 56.0926C48.2564 55.8664 48.159 55.6941 48.0268 55.5757C47.9019 55.4442 47.7576 55.3623 47.5938 55.33C47.4374 55.2846 47.277 55.2846 47.1125 55.33C46.9377 55.3783 46.7897 55.4634 46.6684 55.5853C46.5443 55.697 46.4573 55.8428 46.4073 56.0225C46.3647 56.1892 46.3747 56.3856 46.4371 56.6118C46.4967 56.8278 46.5889 57.0015 46.7137 57.133C46.8488 57.2617 46.9997 57.3474 47.1663 57.3899C47.3301 57.4222 47.4994 57.4142 47.6742 57.3659ZM48.1466 59.078C47.6325 59.2198 47.132 59.2307 46.6452 59.1105C46.1555 58.98 45.7291 58.7381 45.366 58.3846C45.0029 58.0311 44.7533 57.6076 44.6171 57.114C44.4781 56.6102 44.4752 56.1186 44.6085 55.6392C44.739 55.1495 44.9824 54.7282 45.3387 54.3754C45.6922 54.0123 46.126 53.7599 46.6401 53.618C47.1439 53.479 47.6356 53.4761 48.1149 53.6094C48.6018 53.7296 49.0267 53.9664 49.3898 54.3199C49.7501 54.6631 49.9998 55.0866 50.1388 55.5905C50.275 56.084 50.2778 56.5756 50.1474 57.0653C50.0141 57.5447 49.7707 57.9659 49.4172 58.329C49.074 58.6893 48.6505 58.939 48.1466 59.078ZM55.7077 61.9379C55.8722 61.8925 56.0113 61.8154 56.1252 61.7065C56.2464 61.5845 56.3269 61.4351 56.3666 61.2581C56.4166 61.0784 56.4118 60.8805 56.3522 60.6646C56.2898 60.4384 56.1925 60.2661 56.0602 60.1476C55.9354 60.0161 55.7911 59.9342 55.6272 59.902C55.4709 59.8566 55.3104 59.8566 55.1459 59.902C54.9711 59.9502 54.8231 60.0353 54.7018 60.1573C54.5777 60.269 54.4907 60.4147 54.4407 60.5945C54.3982 60.7611 54.4081 60.9576 54.4705 61.1838C54.5301 61.3997 54.6223 61.5735 54.7471 61.705C54.8822 61.8337 55.0331 61.9193 55.1997 61.9619C55.3636 61.9941 55.5329 61.9861 55.7077 61.9379ZM56.18 63.6499C55.6659 63.7918 55.1654 63.8026 54.6786 63.6824C54.1889 63.552 53.7626 63.31 53.3995 62.9565C53.0364 62.603 52.7867 62.1795 52.6505 61.686C52.5115 61.1821 52.5086 60.6905 52.6419 60.2111C52.7724 59.7214 53.0158 59.3002 53.3721 58.9474C53.7256 58.5843 54.1594 58.3318 54.6735 58.19C55.1774 58.0509 55.669 58.0481 56.1484 58.1814C56.6352 58.3015 57.0602 58.5384 57.4233 58.8919C57.7835 59.2351 58.0332 59.6586 58.1722 60.1624C58.3084 60.656 58.3112 61.1476 58.1808 61.6373C58.0475 62.1167 57.8041 62.5379 57.4506 62.901C57.1074 63.2613 56.6839 63.5109 56.18 63.6499Z" fill="white"/>
<path d="M59.9141 39.6113L68.3797 70.2926" stroke="white"/>
<path d="M16.8789 51.5977L25.3444 82.279" stroke="white"/>
</g>
<defs>
<linearGradient id="paint0_linear_2180_2255" x1="17.5018" y1="3.03611" x2="67.2322" y2="48.3461" gradientUnits="userSpaceOnUse">
<stop stop-color="#79D1DC"/>
<stop offset="0.645" stop-color="#E1C3E9"/>
<stop offset="1" stop-color="#F8D8C6"/>
</linearGradient>
<linearGradient id="paint1_linear_2180_2255" x1="16.3975" y1="54.9863" x2="70.5484" y2="69.3529" gradientUnits="userSpaceOnUse">
<stop stop-color="#F7D9D3"/>
<stop offset="0.5" stop-color="#D4BFE5"/>
<stop offset="1" stop-color="#7DD2DE"/>
</linearGradient>
<clipPath id="clip0_2180_2255">
<rect width="85" height="87" fill="white"/>
</clipPath>
</defs>
</svg>
